#!OML:ASF I:\Actors\actors\Patient Classification 2\Patient 1\Session 1\actor1.ASF
:FULLY-SPECIFIED
:DEGREES
434
root -0.93509 18.699 5.42711 2.0522 -2.07678 -2.9012
lowerback 12.7236 0.140498 1.76665
upperback 3.40573 0.449302 0.970367
thorax -3.55161 0.212141 -0.0542292
lowerneck -2.57543 1.25863 -3.90202
upperneck 18.6437 1.27774 4.56277
head 5.98613 0.677548 2.17358
rclavicle 9.73424e-015 5.91384e-015
rhumerus -52.8925 -5.45375 -75.5963
rradius 57.2344
rwrist 7.95146
rhand 2.42744 -41.0861
rfingers 7.12502
rthumb 27.9133 -69.0316
lclavicle 9.73424e-015 5.91384e-015
lhumerus -1.16142 -30.8577 45.3105
lradius 131.11
lwrist 62.8542
lhand -23.6844 -23.9678
lfingers 7.12502
lthumb 2.78211 5.99381
rfemur 4.93453 1.84235 17.6743
rtibia 3.97569e-015
rfoot -14.4731 -10.3915
rtoes -8.15774
lfemur -7.79067 -1.15633 -9.96973
ltibia 23.9312
lfoot -20.2789 10.7299
ltoes -56.6775
435
root -0.949913 18.7003 5.42228 2.05616 -2.04133 -2.9434
lowerback 12.8113 0.126887 1.75559
upperback 3.42623 0.431412 0.962331
thorax -3.5783 0.203226 -0.0539054
lowerneck -3.08791 1.1263 -4.55706
upperneck 19.5347 1.00416 5.4186
head 6.35572 0.566703 2.56172
rclavicle 2.93829e-015 -8.29926e-015
rhumerus -52.788 -5.37836 -75.5808
rradius 57.2641
rwrist 7.89596
rhand 2.45137 -41.2981
rfingers 7.12502
rthumb 27.9362 -69.2398
lclavicle 2.93829e-015 -8.29926e-015
lhumerus -1.64733 -30.6913 45.6329
lradius 130.627
lwrist 62.3108
lhand -23.264 -24.4223
lfingers 7.12502
lthumb 3.18818 5.53363
rfemur 4.93011 1.80729 17.7747
rtibia -2.38542e-015
rfoot -14.4856 -10.3875
rtoes -8.32054
lfemur -7.84002 -1.22398 -9.87484
ltibia 23.965
lfoot -20.2966 10.8016
ltoes -56.6956
436
root -0.965688 18.7009 5.41717 2.09481 -1.99851 -2.98822
lowerback 12.8949 0.114886 1.753
upperback 3.43717 0.417249 0.964287
thorax -3.61265 0.196029 -0.0484702
lowerneck -3.42456 1.01637 -4.77984
upperneck 20.0855 0.814894 5.73662
head 6.59595 0.487114 2.70397
rclavicle -3.23646e-015 1.13307e-014
rhumerus -52.68 -5.3247 -75.5335
rradius 57.2791
rwrist 7.91122
rhand 2.36662 -41.2378
rfingers 7.12502
rthumb 27.8552 -69.1927
lclavicle -3.23646e-015 1.13307e-014
lhumerus -2.13149 -30.4781 45.9506
lradius 130.253
lwrist 61.936
lhand -23.1533 -24.5698
lfingers 7.12502
lthumb 3.29507 5.38445
rfemur 4.88601 1.76363 17.8817
rtibia -1.43125e-014
rfoot -14.4828 -10.3606
rtoes -8.13117
lfemur -7.93567 -1.22884 -9.77611
ltibia 24.0048
lfoot -20.2487 10.8874
ltoes -56.8944
437
root -0.981504 18.7012 5.41158 2.15099 -1.9663 -3.0219
lowerback 12.9459 0.0774324 1.68385
upperback 3.43346 0.359587 0.950045
thorax -3.64552 0.167637 -0.0154302
lowerneck -3.56344 0.952619 -4.58699
upperneck 20.4414 0.725066 5.60665
head 6.74221 0.448916 2.63145
rclavicle 3.81418e-015 -1.88845e-015
rhumerus -52.5697 -5.24617 -75.5392
rradius 57.2629
rwrist 8.01141
rhand 2.36997 -40.9996
rfingers 7.12502
rthumb 27.8584 -68.954
lclavicle 3.81418e-015 -1.88845e-015
lhumerus -2.64444 -30.2041 46.1837
lradius 129.862
lwrist 61.4622
lhand -23.0395 -24.4874
lfingers 7.12502
lthumb 3.40495 5.46519
rfemur 4.81063 1.72978 17.9755
rtibia 7.95139e-015
rfoot -14.4639 -10.3498
rtoes -7.85318
lfemur -8.04894 -1.25453 -9.69289
ltibia 24.0474
lfoot -20.1862 10.9466
ltoes -57.0106
438
root -0.995197 18.7022 5.4059 2.19286 -1.94728 -3.04364
lowerback 12.9784 -0.00550488 1.57141
upperback 3.42058 0.234436 0.903524
thorax -3.67854 0.106113 0.0191593
lowerneck -3.53968 0.926254 -4.06615
upperneck 20.7622 0.702996 5.17443
head 6.84976 0.44156 2.40676
rclavicle -1.49089e-016 -4.07509e-015
rhumerus -52.4889 -5.02303 -75.6762
rradius 57.2809
rwrist 8.0911
rhand 2.53826 -40.9668
rfingers 7.12502
rthumb 28.0192 -68.895
lclavicle -1.49089e-016 -4.07509e-015
lhumerus -3.24591 -29.8858 46.3483
lradius 129.497
lwrist 61.0962
lhand -22.8265 -24.6001
lfingers 7.12502
lthumb 3.61063 5.34908
rfemur 4.74462 1.70956 18.0447
rtibia 1.35174e-014
rfoot -14.4783 -10.343
rtoes -7.652
lfemur -8.1341 -1.43836 -9.64148
ltibia 24.0886
lfoot -20.2229 11.109
ltoes -56.9764
439
root -1.00702 18.7039 5.40039 2.20787 -1.92888 -3.07139
lowerback 13.04 -0.0571155 1.52839
upperback 3.42385 0.160836 0.876518
thorax -3.70959 0.0697918 0.0269021
lowerneck -3.57674 0.881301 -3.6694
upperneck 21.1079 0.652954 4.84071
head 6.9759 0.420579 2.23376
rclavicle 3.00662e-015 -1.59028e-015
rhumerus -52.429 -4.83738 -75.7415
rradius 57.356
rwrist 8.07478
rhand 2.6137 -41.0247
rfingers 7.12502
rthumb 28.0914 -68.9411
lclavicle 3.00662e-015 -1.59028e-015
lhumerus -3.79918 -29.6277 46.5934
lradius 129.171
lwrist 60.7746
lhand -22.6224 -24.9205
lfingers 7.12502
lthumb 3.80771 5.02522
rfemur 4.71112 1.69118 18.119
rtibia 7.15625e-015
rfoot -14.4539 -10.3494
rtoes -7.77176
lfemur -8.18052 -1.62938 -9.59
ltibia 24.1129
lfoot -20.251 11.3308
ltoes -57.0246
440
root -1.01843 18.705 5.39478 2.21774 -1.89549 -3.08908
lowerback 13.1498 -0.0661726 1.51768
upperback 3.41514 0.149951 0.872849
thorax -3.77871 0.0640594 0.030882
lowerneck -3.62585 0.828887 -3.58778
upperneck 21.4472 0.56392 4.83889
head 7.09942 0.38449 2.2193
rclavicle -1.46107e-014 1.64991e-014
rhumerus -52.371 -4.70773 -75.7083
rradius 57.4052
rwrist 7.95671
rhand 2.49677 -40.9349
rfingers 7.12502
rthumb 27.9796 -68.8696
lclavicle -1.46107e-014 1.64991e-014
lhumerus -4.36482 -29.4507 46.9127
lradius 128.904
lwrist 60.4597
lhand -22.4805 -25.0323
lfingers 7.12502
lthumb 3.94477 4.91094
rfemur 4.69125 1.65753 18.1866
rtibia 2.38542e-014
rfoot -14.3913 -10.3802
rtoes -8.11549
lfemur -8.22357 -1.66268 -9.53438
ltibia 24.1233
lfoot -20.1821 11.4141
ltoes -57.1513
